# xmcd
#
# Track frame offsets: 
#        150
#        25710
#        58540
#
# Disc length: 1045 seconds
#
# Revision: 0
# Processed by: cddbd v1.5.2PL0 Copyright (c) Steve Scherf et al.
# Submitted via: ExactAudioCopyFreeDBPlugin 1.0
#
DISCID=1a041303
DTITLE=Robert Cray - I Was Warned
DYEAR=1992
DGENRE=Blues
TTITLE0=I Was Warned (edit)
TTITLE1=I Was Warned (album version)
TTITLE2=Just A Loser
EXTD=
EXTT0=
EXTT1=
EXTT2=
PLAYORDER=
